# xmcd
#
# Track frame offsets: 
#        182
#        12910
#        28892
#        43462
#        57750
#        71515
#        83462
#        96555
#        112370
#        127740
#        141662
#
# Disc length: 2114 seconds
#
# Revision: 2
# Processed by: cddbd v1.5PL3 Copyright (c) Steve Scherf et al.
# Submitted via: ExactAudioCopy v0.95a3
#
DISCID=a108400b
DTITLE=The Roger Springer Band - The Roger Springer Band
DYEAR=1999
DGENRE=
TTITLE0=I Don't Understand
TTITLE1=Don't Try To Find Me
TTITLE2=The Last Dance
TTITLE3=We Owe Them More Than That
TTITLE4=That Would Be You
TTITLE5=No One Like You
TTITLE6=Ain't Nothin' But A Cloud
TTITLE7=I Feel For You
TTITLE8=That Ain't Like Me
TTITLE9=Love Lives On
TTITLE10=Daddy Never Had A Chance In Hell
EXTD=
EXTT0=
EXTT1=
EXTT2=
EXTT3=
EXTT4=
EXTT5=
EXTT6=
EXTT7=
EXTT8=
EXTT9=
EXTT10=
PLAYORDER=
